<?xml version="1.0" standalone="no"?>
<!DOCTYPE svg PUBLIC "-//W3C//DTD SVG 20010904//EN"
 "http://www.w3.org/TR/2001/REC-SVG-20010904/DTD/svg10.dtd">
<svg version="1.0" xmlns="http://www.w3.org/2000/svg"
 width="512.000000pt" height="512.000000pt" viewBox="0 0 512.000000 512.000000"
 preserveAspectRatio="xMidYMid meet">
<metadata>
Created by potrace 1.16, written by Peter Selinger 2001-2019
</metadata>
<g transform="translate(0.000000,512.000000) scale(0.100000,-0.100000)"
fill="#000000" stroke="none">
<path d="M2526 4741 c-18 -19 -45 -32 -84 -41 -123 -27 -336 -92 -385 -116
-28 -15 -101 -60 -161 -101 -106 -73 -111 -75 -155 -69 -25 3 -67 14 -93 23
-38 13 -52 14 -72 5 -35 -16 -43 -55 -21 -101 49 -100 50 -86 -30 -482 -56
-279 -77 -366 -91 -376 -14 -10 -19 -35 -25 -125 -5 -62 -15 -135 -23 -161
-15 -46 -14 -49 5 -68 16 -16 29 -20 55 -16 19 3 34 4 34 1 0 -10 -33 -69 -47
-86 -10 -11 -17 -51 -22 -115 -7 -93 -9 -101 -49 -162 -105 -161 -245 -469
-263 -581 -14 -85 -31 -124 -100 -226 -81 -121 -74 -161 18 -108 65 38 223
143 223 149 0 3 -40 -15 -90 -40 -49 -25 -95 -45 -101 -45 -6 0 0 15 13 33 52
70 70 110 88 200 20 100 50 181 124 341 70 151 82 167 112 156 22 -9 26 -6 46
35 12 25 26 45 31 45 10 0 37 -63 37 -87 0 -10 -10 -23 -22 -28 -11 -6 -28
-21 -37 -34 -15 -23 -15 -23 18 -16 l34 7 -7 -33 c-3 -19 -9 -64 -12 -100 l-6
-66 -79 -38 c-43 -21 -85 -48 -94 -61 -14 -22 -41 -202 -31 -211 3 -3 17 33
31 80 15 47 32 93 39 101 6 9 46 33 89 55 l78 38 53 -55 54 -56 -26 -40 -25
-41 17 -84 c10 -46 20 -90 22 -96 3 -7 -31 -25 -83 -44 -106 -40 -355 -166
-513 -259 -119 -70 -118 -70 -109 -131 4 -22 -9 -29 -161 -95 -91 -40 -178
-79 -195 -88 l-29 -16 58 -37 c90 -57 523 -317 617 -370 46 -26 109 -69 140
-95 91 -79 200 -154 297 -203 50 -26 93 -47 95 -47 3 0 9 21 13 48 3 26 8 50
10 54 3 4 39 -9 82 -29 161 -73 478 -193 667 -252 l96 -29 237 80 c545 185
862 331 1413 654 239 140 369 221 369 229 0 8 -165 87 -282 136 l-106 44 1 40
c2 39 2 40 -84 91 -163 99 -365 208 -464 252 -55 24 -102 46 -104 48 -2 2 11
39 29 83 l33 79 -47 61 c-51 66 -51 66 1 124 l32 36 73 -40 c40 -22 77 -44 82
-49 4 -4 17 -50 27 -101 11 -51 25 -99 31 -107 7 -7 44 -35 83 -61 38 -26 108
-73 155 -105 l85 -57 3 31 c3 24 -9 51 -52 117 -50 77 -96 187 -96 232 -1 31
-39 101 -154 279 -63 99 -123 196 -133 217 l-18 37 28 20 c34 25 35 59 3 136
-13 31 -27 80 -31 107 -4 28 -14 62 -22 77 -7 16 -18 39 -23 52 -9 23 -7 24
23 19 23 -3 37 0 49 14 16 17 15 24 -8 112 -14 54 -24 122 -24 160 0 56 -4 73
-25 101 -14 19 -25 40 -25 47 0 7 -9 39 -19 70 -11 32 -43 181 -72 330 -57
295 -57 282 -17 420 11 37 10 44 -7 63 -22 24 -46 25 -130 4 -36 -9 -76 -13
-90 -10 -14 4 -76 41 -138 83 -61 42 -132 84 -157 94 -65 26 -365 119 -384
119 -8 0 -27 11 -42 25 -15 14 -28 25 -29 25 -1 0 -14 -13 -29 -29z m371 -177
c88 -27 130 -46 190 -89 43 -30 108 -75 146 -101 43 -31 82 -50 108 -53 l41
-6 -87 -76 -86 -76 -82 55 c-100 67 -228 129 -358 173 l-97 33 -26 56 c-20 42
-46 136 -46 166 0 4 174 -43 297 -82z m-405 35 c-5 -35 2 -32 -122 -54 -197
-36 -338 -92 -508 -204 l-93 -61 -26 20 -26 20 36 0 c24 0 52 12 93 40 242
166 248 170 333 196 127 39 262 73 292 74 23 0 25 -3 21 -31z m99 -187 c4 -86
8 -297 9 -468 l0 -311 -25 5 c-14 2 -31 -1 -39 -7 -23 -19 -28 45 -22 288 14
510 16 548 42 661 12 54 26 -13 35 -168z m-114 124 c-3 -8 -11 -32 -18 -55 -7
-23 -17 -45 -23 -49 -6 -5 -58 -23 -116 -42 -121 -37 -230 -89 -348 -166 -45
-30 -86 -54 -90 -54 -3 0 -28 21 -54 47 l-47 47 96 59 c193 118 306 165 498
206 112 24 108 24 102 7z m-703 -320 l79 -76 -71 -65 c-83 -77 -104 -117 -130
-245 -18 -88 -21 -96 -52 -114 l-33 -19 7 57 c4 31 24 123 43 204 20 81 38
177 41 215 3 59 0 75 -27 133 -17 37 -31 69 -31 71 0 6 43 -34 174 -161z m881
73 c8 -35 26 -190 39 -344 14 -154 28 -298 31 -320 3 -22 2 -35 -2 -29 -11 16
-49 34 -71 34 -17 0 -20 10 -25 98 -11 155 -8 660 3 641 5 -9 16 -45 25 -80z
m810 31 c-40 -80 -72 -221 -45 -205 6 3 10 16 10 27 0 37 12 11 27 -59 21
-101 63 -335 63 -355 0 -21 -10 -23 -33 -5 -10 7 -24 40 -32 79 -21 103 -60
173 -141 257 l-74 76 123 117 c67 64 123 117 125 118 1 0 -9 -22 -23 -50z
m-1039 13 c-3 -16 -13 -116 -21 -223 -8 -107 -18 -216 -21 -241 l-6 -46 -52
-7 c-28 -3 -90 -6 -138 -6 l-88 0 6 48 c10 82 44 195 78 259 19 35 32 63 30
63 -2 0 -19 -24 -37 -52 -42 -67 -82 -166 -97 -244 -7 -34 -15 -66 -19 -71 -3
-5 -50 -13 -103 -16 -111 -7 -108 -10 -84 78 20 76 40 118 77 161 l33 39 -36
-33 c-45 -42 -81 -109 -104 -189 l-17 -62 -50 -11 c-27 -6 -51 -9 -53 -7 -8 8
28 126 56 183 45 93 160 185 356 283 91 46 244 109 292 120 2 1 1 -11 -2 -26z
m65 -337 l-6 -360 -33 -8 c-22 -6 -40 -21 -57 -48 -13 -21 -33 -41 -45 -45
-15 -5 -18 -10 -11 -24 14 -26 3 -57 -25 -72 -21 -11 -40 -11 -107 0 -45 7
-116 14 -157 17 l-75 4 86 -15 c117 -19 235 -50 264 -69 26 -17 35 -49 13 -41
-148 49 -304 75 -444 76 -127 1 -206 -16 -329 -67 -44 -19 -81 -34 -82 -34 -2
0 -3 13 -3 30 0 19 7 33 20 40 23 12 26 40 8 59 -18 17 23 50 127 103 161 82
197 92 325 91 74 -1 168 -10 264 -27 82 -14 151 -24 154 -21 2 2 19 140 38
305 18 166 42 337 53 380 12 44 21 83 21 86 0 4 1 5 3 3 2 -2 1 -166 -2 -363z
m428 253 c183 -87 330 -195 394 -292 33 -49 83 -174 74 -183 -2 -2 -29 1 -60
7 l-56 12 -17 55 c-15 54 -60 152 -69 152 -2 0 7 -24 20 -52 13 -29 27 -75 30
-103 l7 -50 -94 3 -95 3 -12 64 c-20 113 -50 192 -101 268 -27 41 -56 80 -65
87 -8 7 5 -17 29 -53 24 -36 53 -94 65 -129 21 -62 50 -189 51 -217 0 -11 -25
-13 -134 -9 -74 2 -138 7 -142 11 -8 8 -43 385 -44 469 l0 48 58 -21 c31 -12
104 -43 161 -70z m-546 -521 c-8 -71 -19 -98 -40 -98 -10 0 -72 7 -138 15 -65
8 -166 15 -223 15 -120 0 -193 -20 -342 -95 -49 -25 -95 -45 -101 -45 -12 0
-3 72 13 103 23 45 236 121 383 136 140 15 173 17 322 19 l132 2 -6 -52z m814
32 c116 -15 211 -41 287 -79 74 -38 88 -55 100 -124 l7 -38 -90 46 c-151 75
-222 95 -348 95 -59 0 -170 -7 -246 -17 -75 -9 -139 -14 -141 -12 -2 2 -8 37
-12 78 l-7 74 189 -7 c104 -3 222 -11 261 -16z m91 -135 c111 -26 342 -141
342 -171 0 -11 -6 -10 -29 7 -33 24 -51 19 -51 -16 0 -56 35 -75 64 -33 12 16
16 18 20 7 5 -15 15 -109 12 -109 -2 0 -38 15 -82 34 -121 53 -222 69 -378 63
-123 -4 -210 -21 -383 -73 -17 -5 -23 -2 -23 10 0 35 72 61 267 95 143 26 72
26 -87 1 -69 -11 -128 -20 -132 -20 -16 0 -58 56 -58 78 0 13 -7 36 -15 51
-17 35 -28 31 165 60 74 11 146 22 160 24 58 9 149 6 208 -8z m-791 -36 c-15
-11 -45 -59 -67 -106 -37 -76 -40 -89 -30 -114 13 -31 50 -62 127 -104 l51
-29 39 27 c66 46 143 118 143 134 0 23 -70 151 -101 184 -22 24 -24 29 -9 29
39 0 100 -72 100 -120 0 -11 9 -33 20 -48 l20 -27 -21 -42 c-35 -71 -15 -77
115 -39 123 38 238 56 346 56 128 0 184 -11 313 -62 102 -40 108 -45 117 -78
24 -85 18 -86 -82 -18 -114 76 -171 99 -269 105 -155 11 -351 -39 -596 -151
-67 -31 -129 -56 -136 -56 -8 0 -57 20 -108 44 -120 56 -335 131 -440 152 -58
12 -114 15 -188 12 -126 -5 -174 -24 -290 -112 -41 -31 -79 -56 -84 -56 -8 0
-4 48 9 91 2 9 35 30 72 47 227 105 378 113 684 36 76 -19 143 -32 148 -29 17
11 11 43 -15 73 -24 29 -24 30 -7 53 26 33 32 55 20 67 -7 7 -3 12 11 17 12 3
28 20 37 36 15 30 43 47 78 48 16 1 15 -2 -7 -20z m126 -11 c20 -18 44 -51 53
-72 l15 -39 -39 7 c-29 4 -43 2 -52 -9 -10 -12 -7 -15 14 -21 14 -3 30 -12 37
-20 10 -13 15 -12 34 0 44 29 50 -27 8 -66 -36 -33 -105 -78 -119 -78 -6 0
-39 26 -73 58 -43 41 -60 63 -56 74 6 15 10 15 41 -2 34 -20 45 -15 22 8 -10
10 -10 15 1 21 26 16 41 0 42 -43 1 -22 5 -54 9 -71 5 -19 8 14 9 92 1 72 -3
124 -9 128 -6 4 -10 -8 -10 -28 0 -30 -4 -36 -27 -41 -16 -4 -36 -9 -45 -12
-44 -13 -4 80 51 121 19 14 40 25 46 25 7 0 28 -15 48 -32z m967 -144 c0 -8
-4 -12 -10 -9 -5 3 -10 10 -10 16 0 5 5 9 10 9 6 0 10 -7 10 -16z m-1128 -94
c43 -38 24 -38 -22 0 -19 17 -29 30 -22 30 6 0 26 -13 44 -30z m-803 -245 c7
-93 14 -180 16 -192 3 -13 42 -51 90 -88 91 -71 97 -84 67 -135 l-19 -30 -19
42 c-10 24 -48 73 -83 110 l-64 68 -13 133 c-17 165 -17 240 -2 255 6 6 13 11
14 9 1 -1 7 -78 13 -172z m309 165 c45 -6 121 -24 169 -41 100 -36 361 -154
384 -175 9 -8 24 -42 34 -75 l19 -61 28 61 c16 33 41 69 56 79 37 26 302 149
385 178 83 30 213 50 230 35 7 -5 18 -26 26 -46 12 -34 11 -39 -9 -60 -17 -18
-35 -23 -93 -27 -119 -9 -213 -37 -357 -110 -120 -60 -131 -64 -97 -34 46 41
133 88 235 127 42 17 64 27 47 24 -53 -11 -179 -64 -244 -102 -102 -61 -132
-91 -138 -142 -7 -51 -14 -52 142 14 131 56 166 65 251 65 62 0 76 4 110 29
21 15 47 37 57 49 18 19 18 20 -5 37 l-23 17 30 -7 c17 -4 42 -8 58 -8 21 -2
27 -7 27 -25 0 -34 -42 -130 -94 -217 -26 -42 -46 -78 -44 -80 4 -5 67 85 134
192 l53 85 -6 -54 c-11 -103 -47 -154 -165 -235 -63 -43 -356 -203 -372 -203
-13 0 -6 168 7 178 7 6 71 30 142 53 110 36 136 49 175 85 25 23 56 62 69 86
23 42 23 41 -34 -20 -68 -74 -110 -97 -267 -147 -73 -23 -119 -42 -123 -52 -3
-9 -3 -53 0 -97 3 -45 2 -86 -2 -92 -9 -13 -167 -94 -182 -94 -6 0 -53 19
-105 42 l-95 42 -3 104 -3 103 -117 38 c-64 21 -152 57 -195 81 -70 37 -75 39
-53 15 33 -36 113 -75 233 -114 60 -21 101 -40 107 -51 9 -16 15 -170 7 -170
-1 0 -56 29 -122 65 -66 36 -153 82 -194 102 -141 72 -202 153 -217 283 l-7
65 62 -92 c34 -51 67 -95 73 -99 13 -8 -33 77 -85 159 l-38 57 38 0 c33 0 42
-6 66 -41 47 -65 63 -72 200 -76 l122 -4 123 -59 122 -59 0 39 c0 59 -42 100
-167 162 -84 42 -115 52 -161 54 -31 1 -90 9 -130 18 -40 9 -97 16 -127 16
-45 0 -55 3 -69 25 -11 16 -15 34 -10 48 8 29 32 67 42 67 4 0 45 -5 90 -10z
m1552 -68 c0 -39 -11 -130 -36 -309 -3 -23 -23 -51 -68 -95 -34 -35 -71 -75
-82 -91 l-19 -27 -52 21 -51 22 102 68 c151 101 143 85 155 279 6 91 11 173
11 183 0 15 3 16 20 7 16 -8 20 -21 20 -58z m-1920 -32 c0 -32 5 -94 10 -137
6 -43 13 -96 16 -119 4 -33 17 -55 69 -113 73 -80 99 -126 109 -188 14 -93
105 -253 206 -363 l42 -45 -48 70 c-26 39 -60 88 -75 111 -37 54 -99 184 -99
207 0 16 36 97 44 97 30 0 74 -33 116 -85 51 -66 68 -78 246 -174 75 -40 108
-63 109 -77 2 -10 12 -59 23 -109 20 -90 45 -264 57 -403 l6 -74 -73 54 -73
54 -50 145 c-58 164 -81 211 -140 289 -63 83 -107 151 -102 156 4 5 207 -135
244 -169 24 -21 36 -66 73 -275 12 -68 24 -121 26 -119 4 4 -30 251 -42 306
-14 65 -29 83 -128 155 -121 89 -222 179 -240 215 -8 14 -11 41 -9 59 6 38
-13 44 -23 7 -16 -64 36 -178 131 -290 37 -44 83 -103 102 -131 29 -44 92
-209 123 -324 8 -31 24 -48 79 -89 38 -28 74 -58 82 -67 7 -8 21 -20 32 -26
19 -10 19 -7 13 68 -15 161 -56 461 -70 507 -8 26 -10 47 -5 47 5 0 51 -9 103
-21 l95 -21 102 21 c56 12 103 20 105 19 1 -2 -4 -28 -12 -58 -23 -90 -53
-264 -72 -432 l-18 -156 35 30 c20 16 79 56 131 87 l95 58 31 106 c48 165 60
189 161 330 103 144 152 232 178 320 14 49 30 72 102 147 l85 90 14 102 c8 57
17 138 21 181 l6 78 32 -31 c22 -21 35 -45 39 -71 9 -56 -2 -66 -30 -28 l-23
32 5 -34 c7 -44 -21 -214 -45 -279 -11 -28 -48 -90 -84 -138 -35 -48 -81 -122
-101 -166 -20 -43 -52 -101 -73 -130 -20 -28 -58 -82 -85 -121 l-49 -70 46 50
c26 28 78 94 116 147 62 86 78 102 142 137 40 22 64 41 54 41 -10 0 -37 -13
-60 -28 -70 -48 -70 -48 -52 -5 9 21 21 45 28 54 115 155 148 222 168 335 14
87 22 95 55 62 l26 -26 -17 -78 c-9 -44 -35 -116 -57 -161 -22 -44 -37 -86
-34 -92 17 -26 -87 -157 -259 -326 -72 -71 -144 -148 -158 -170 -22 -33 -32
-72 -54 -213 l-28 -172 -135 -71 c-74 -39 -177 -98 -229 -130 -51 -33 -97 -59
-102 -59 -6 0 -393 242 -406 254 -2 1 -10 54 -18 117 -19 139 -39 211 -71 258
-13 20 -104 117 -201 215 -164 165 -193 200 -103 122 33 -29 32 -28 -5 12 -21
23 -57 54 -78 69 -34 23 -36 28 -20 34 10 4 31 8 46 8 16 1 27 4 25 9 -2 4
-36 72 -76 152 -64 129 -74 157 -90 252 -16 95 -19 105 -35 97 -14 -8 -17 -6
-17 18 0 58 35 133 62 133 4 0 8 -27 8 -60z m-31 -239 c7 -36 33 -104 57 -152
24 -49 52 -110 63 -138 l19 -50 -31 -11 c-27 -9 -34 -7 -55 13 -31 32 -109
248 -126 352 -6 36 -4 41 21 56 34 19 36 15 52 -70z m-49 -158 c11 -29 18 -53
16 -53 -2 0 -15 17 -30 38 -19 28 -27 54 -31 102 l-5 65 16 -50 c8 -27 24 -74
34 -102z m2141 65 c-7 -29 -16 -60 -22 -68 -9 -12 -10 -11 -4 5 3 11 11 44 17
73 6 29 13 50 15 48 3 -2 0 -28 -6 -58z m21 -71 l-22 -21 10 34 c6 19 11 48
11 65 1 26 3 25 12 -13 9 -39 8 -46 -11 -65z m-1822 18 c13 -14 21 -25 18 -25
-2 0 -15 11 -28 25 -13 14 -21 25 -18 25 2 0 15 -11 28 -25z m30 -61 c0 -8 -4
-12 -10 -9 -5 3 -10 13 -10 21 0 8 5 12 10 9 6 -3 10 -13 10 -21z m1397 -71
c10 -25 -22 -77 -101 -164 -44 -50 -98 -97 -130 -117 -31 -17 -81 -46 -111
-64 -32 -19 -58 -42 -64 -57 -5 -14 -19 -109 -31 -211 -12 -101 -24 -189 -27
-195 -3 -5 0 -5 7 2 7 6 25 99 41 209 16 109 34 203 40 210 6 8 45 33 87 58
43 24 105 65 140 90 73 54 72 48 -24 -91 -86 -125 -112 -178 -154 -318 l-36
-120 -95 -52 c-52 -29 -98 -53 -102 -53 -17 0 26 310 64 458 15 62 26 119 23
126 -3 8 16 19 53 30 138 44 242 110 328 211 38 45 45 58 35 70 -11 13 -8 13
20 4 17 -7 34 -18 37 -26z m399 -15 c9 -18 64 -109 122 -203 114 -184 130
-218 162 -341 12 -44 34 -100 50 -124 16 -24 27 -46 25 -48 -5 -5 -64 30 -126
75 -58 41 -77 80 -85 173 -8 81 -14 88 -124 131 -30 12 -57 24 -59 25 -2 2 6
15 18 30 29 37 27 93 -9 199 -22 66 -27 91 -19 102 17 20 27 16 45 -19z m-562
-64 c-27 -30 -64 -65 -83 -77 l-35 -21 50 66 c42 57 100 104 113 92 2 -2 -18
-29 -45 -60z m-1049 -14 l18 -35 -22 19 c-11 11 -21 28 -21 39 0 24 2 22 25
-23z m-365 -118 c6 -13 10 -56 9 -95 -1 -66 -2 -70 -13 -44 -7 16 -16 28 -21
27 -4 -1 -23 17 -41 40 -19 24 -34 40 -34 36 0 -4 21 -34 46 -67 31 -38 49
-73 54 -101 l8 -43 -79 85 c-87 93 -88 96 -68 206 19 107 15 105 76 39 30 -33
58 -70 63 -83z m1868 48 c17 -102 16 -110 -38 -168 -46 -52 -48 -53 -56 -30
-4 12 -8 54 -9 91 -2 65 -1 70 39 122 22 30 43 55 46 55 3 0 11 -32 18 -70z
m-1729 -225 c63 -69 108 -140 126 -203 6 -22 5 -23 -14 -12 -12 6 -54 39 -93
72 -38 33 -65 52 -60 41 14 -25 74 -80 133 -121 45 -30 46 -33 59 -109 16 -92
64 -195 118 -249 21 -22 82 -70 136 -109 78 -55 112 -87 163 -154 35 -46 61
-86 59 -88 -8 -8 -150 56 -244 109 -144 82 -269 175 -368 273 -120 120 -126
128 -112 185 5 25 11 134 12 242 0 109 4 198 8 198 3 0 38 -34 77 -75z m1611
-239 c18 -123 8 -164 -59 -249 -153 -191 -359 -338 -614 -436 l-78 -29 32 56
c55 97 86 128 211 213 219 148 224 157 282 410 3 16 25 39 59 62 59 41 96 78
122 122 l18 30 -27 -32 c-29 -35 -155 -138 -161 -132 -2 2 5 29 16 59 18 52
30 68 129 173 l45 48 7 -108 c3 -59 12 -143 18 -187z m-1862 -220 c-42 -39
-68 -71 -68 -84 0 -33 55 -176 99 -258 66 -122 113 -236 107 -259 -3 -12 -53
-68 -111 -124 -86 -82 -111 -101 -135 -101 -30 0 -40 -14 -17 -24 8 -4 9 -8 1
-11 -45 -22 -45 -28 1 -77 33 -36 52 -48 73 -48 57 0 88 54 53 89 -50 50 -115
6 -83 -55 l15 -29 -32 29 c-17 17 -31 35 -31 42 0 6 19 24 43 39 23 15 52 39
65 53 12 15 20 19 17 10 -10 -27 13 -58 42 -58 63 0 85 67 33 99 -28 17 -29
19 -14 32 10 8 34 36 55 62 l38 48 16 -30 c23 -45 19 -82 -30 -261 -25 -91
-45 -173 -45 -183 0 -10 -6 -20 -14 -23 -24 -9 -150 79 -243 170 l-86 83 105
56 c80 43 119 72 161 117 31 33 59 69 62 81 5 16 -7 48 -44 118 -98 182 -164
326 -169 368 -4 38 -1 45 34 78 40 36 151 115 163 115 3 0 -24 -29 -61 -64z
m1993 -2 c30 -25 58 -54 63 -65 22 -47 -98 -226 -217 -321 l-37 -30 34 59 c53
89 75 167 82 292 4 61 10 111 14 111 3 0 31 -21 61 -46z m-2171 -59 c0 -34 -1
-35 -114 -89 -63 -30 -156 -77 -206 -106 -51 -28 -93 -50 -95 -48 -14 17 -25
52 -18 58 25 23 404 219 426 220 4 0 7 -16 7 -35z m2434 -29 c56 -30 144 -78
197 -108 94 -52 96 -54 86 -81 -5 -15 -12 -27 -16 -25 -3 2 -51 29 -106 60
-55 31 -140 78 -190 105 -76 41 -90 53 -93 76 -2 16 1 27 9 27 6 0 57 -24 113
-54z m-383 -42 c-25 -139 -105 -291 -190 -357 -97 -75 -175 -116 -300 -157
-67 -22 -125 -40 -129 -40 -4 0 43 29 104 63 132 75 216 140 308 237 81 87
146 183 183 273 32 80 40 73 24 -19z m441 -95 c103 -55 190 -103 192 -107 6
-11 -85 -152 -159 -247 -35 -44 -97 -114 -139 -155 l-76 -75 -54 28 c-29 15
-92 64 -140 107 -87 80 -96 87 -96 71 0 -14 167 -172 209 -198 25 -14 41 -32
41 -43 0 -23 -86 -99 -152 -135 -41 -22 -52 -25 -59 -14 -25 40 -119 262 -119
281 0 13 8 35 18 50 l18 28 59 -60 c33 -33 53 -60 45 -60 -40 0 -66 -65 -36
-89 20 -17 67 -10 80 11 14 23 2 32 -22 17 -25 -16 -52 -5 -52 20 0 31 37 37
66 10 13 -12 24 -29 24 -36 0 -8 8 -25 17 -40 16 -24 16 -27 0 -55 -15 -26
-12 -25 33 14 27 23 47 44 44 47 -2 3 -10 -1 -16 -7 -9 -9 -16 -8 -30 5 -24
22 -23 36 3 23 11 -6 30 -10 42 -8 19 3 15 7 -23 30 -25 15 -83 65 -130 112
l-84 85 22 24 c24 25 28 47 11 64 -7 7 23 56 101 164 62 84 123 173 137 196
14 24 28 43 31 43 3 0 90 -45 194 -101z m-2463 52 c6 -22 44 -104 83 -183 40
-78 80 -160 90 -180 17 -37 17 -37 -2 -25 -16 9 -23 9 -36 -5 -9 -9 -14 -24
-11 -32 8 -20 46 -21 53 -1 8 20 24 19 24 -1 0 -32 -92 -123 -160 -159 -38
-19 -75 -35 -83 -35 -17 0 -138 124 -218 225 -66 81 -159 219 -159 234 0 10
375 201 396 201 6 0 16 -18 23 -39z m826 -376 c83 -65 154 -122 159 -126 15
-13 -170 40 -267 76 -49 19 -90 35 -92 37 -5 5 -141 260 -170 318 l-27 55 123
-121 c68 -66 192 -174 274 -239z m880 185 c-65 -66 -170 -142 -251 -183 -59
-30 -156 -68 -161 -64 -1 2 41 27 95 57 103 56 273 169 332 219 55 48 49 36
-15 -29z m-2220 -52 c25 -11 25 -12 -31 -35 -43 -17 -60 -20 -71 -12 -20 17
-16 24 20 42 39 19 49 20 82 5z m3253 -27 c39 -19 72 -37 72 -40 0 -3 -25 -21
-55 -39 -30 -18 -55 -35 -55 -38 0 -2 48 20 107 50 104 53 108 54 136 39 18
-9 26 -18 20 -24 -32 -32 -610 -336 -620 -326 -2 3 33 50 80 105 81 96 191
244 216 291 7 12 15 21 19 19 4 -2 40 -19 80 -37z m-3059 -87 c46 -63 118
-150 159 -195 59 -63 72 -83 61 -90 -8 -5 -21 -9 -29 -9 -29 1 -609 316 -610
331 0 4 14 12 31 19 29 13 37 10 135 -38 57 -29 104 -50 104 -48 0 2 -22 18
-50 36 -27 18 -50 34 -50 36 0 6 142 72 155 72 6 0 48 -51 94 -114z m3175 101
c41 -31 -12 -47 -66 -19 -24 12 -28 18 -17 25 21 13 61 10 83 -6z m-2392 -95
c153 -115 298 -179 513 -226 168 -36 376 -15 596 62 112 38 171 68 234 119 22
18 71 51 109 74 l69 41 -36 -43 -36 -44 25 -11 24 -12 -34 -44 c-60 -79 -59
-91 33 -293 28 -62 51 -115 51 -117 0 -23 -808 -326 -870 -326 -24 0 -307 96
-485 165 -181 70 -345 144 -345 157 0 5 16 71 35 145 19 75 35 151 35 169 0
19 -14 68 -31 109 l-32 75 24 35 c13 19 25 35 26 35 2 0 45 -31 95 -70z m-242
-255 c20 -25 8 -50 -25 -50 -21 0 -31 5 -33 18 -4 21 14 47 33 47 7 0 18 -7
25 -15z m-85 -145 c0 -18 -6 -26 -23 -28 -24 -4 -38 18 -28 44 3 9 15 14 28
12 17 -2 23 -10 23 -28z"/>
<path d="M2640 4562 c0 -4 53 -20 118 -35 180 -44 290 -95 475 -219 86 -58 93
-40 8 20 -172 121 -257 161 -441 207 -120 29 -160 36 -160 27z"/>
<path d="M1675 3537 c-11 -6 -27 -18 -35 -27 -8 -9 -22 -14 -31 -13 -22 5 -51
-31 -47 -59 2 -17 10 -24 30 -26 22 -3 32 3 48 30 11 18 20 42 21 53 0 14 2
16 6 5 3 -8 10 -21 15 -27 15 -19 48 3 48 32 0 31 -28 47 -55 32z"/>
<path d="M3400 3514 c0 -61 51 -89 71 -38 12 33 -11 64 -48 64 -18 0 -23 -5
-23 -26z m47 -26 c-3 -8 -6 -5 -6 6 -1 11 2 17 5 13 3 -3 4 -12 1 -19z"/>
<path d="M2621 3514 c0 -11 3 -14 6 -6 3 7 2 16 -1 19 -3 4 -6 -2 -5 -13z"/>
<path d="M2610 3409 c0 -11 5 -17 10 -14 6 3 10 13 10 21 0 8 -4 14 -10 14 -5
0 -10 -9 -10 -21z"/>
<path d="M2671 3386 c-6 -8 -24 -19 -39 -25 -26 -11 -58 -48 -49 -57 6 -6 75
49 92 74 18 24 14 30 -4 8z"/>
<path d="M2220 3137 c3 -2 43 -23 90 -46 47 -23 76 -34 65 -26 -34 28 -176 94
-155 72z"/>
<path d="M3094 2799 c-22 -24 -24 -29 -8 -21 24 13 49 40 42 47 -2 3 -18 -9
-34 -26z"/>
<path d="M1661 2383 c11 -57 24 -73 16 -18 -4 22 -7 46 -7 53 0 6 -4 12 -9 12
-5 0 -5 -20 0 -47z"/>
<path d="M3495 2398 c0 -24 -3 -61 -7 -83 l-8 -40 14 36 c18 46 24 121 11 126
-6 2 -10 -16 -10 -39z"/>
<path d="M3499 1234 c-9 -11 -10 -20 -2 -32 15 -24 44 -27 59 -7 28 38 -27 75
-57 39z"/>
<path d="M3628 1149 c-25 -14 -24 -65 1 -79 27 -14 47 -13 65 6 45 45 -10 106
-66 73z m46 -5 c23 -9 20 -41 -4 -49 -25 -8 -40 1 -40 24 0 29 14 37 44 25z"/>
<path d="M1458 1135 c-21 -47 23 -81 72 -55 16 9 20 19 18 43 -3 29 -6 32 -40
35 -33 3 -40 0 -50 -23z m68 0 c7 -18 -13 -45 -33 -45 -19 0 -28 27 -13 45 16
19 39 19 46 0z"/>
<path d="M1874 1171 c4 -5 41 -31 84 -58 42 -26 97 -64 122 -84 73 -61 227
-133 413 -194 l99 -33 136 48 c228 80 468 177 459 186 -2 2 -40 -12 -86 -31
-94 -40 -263 -94 -401 -129 l-95 -24 -12 22 -12 21 -1 -23 c0 -21 -3 -23 -32
-17 -78 15 -270 80 -345 116 -47 22 -103 59 -130 85 -43 41 -214 140 -199 115z"/>
<path d="M2594 670 c0 -69 1 -97 3 -62 2 34 2 90 0 125 -2 34 -3 6 -3 -63z"/>
<path d="M3978 1827 c15 -17 162 -119 162 -112 0 10 -52 54 -107 91 -54 36
-73 43 -55 21z"/>
<path d="M1044 1784 c-51 -30 -126 -92 -84 -68 40 22 150 94 150 99 0 8 -4 7
-66 -31z"/>
</g>
</svg>